<svg width="1500" height="400" viewBox="0 0 1500 400" fill="none" xmlns="http://www.w3.org/2000/svg">
    <g clip-path="url(#clip0_2327_5502)">
        <rect width="1500" height="400" fill="url(#paint0_linear_2327_5502)"/>
        <line x1="1412" y1="95.5" x2="1445" y2="95.5" stroke="#8488B2" stroke-width="3"/>
        <line x1="1427.5" y1="112.501" x2="1427.5" y2="-20" stroke="#8488B2" stroke-width="3"/>
        <line x1="1412" y1="80.5" x2="1445" y2="80.5" stroke="#8488B2" stroke-width="3"/>
        <path d="M997.993 163.226C997.58 162.508 996.663 162.261 995.945 162.674C995.226 163.087 994.979 164.004 995.392 164.723L997.993 163.226ZM1019.83 207.193L1020.58 208.494L1023.18 206.997L1022.43 205.697L1019.83 207.193ZM995.392 164.723L1019.83 207.193L1022.43 205.697L997.993 163.226L995.392 164.723Z" fill="#8488B3"/>
        <path d="M1045.55 172.726L1047.03 172.986L1047.55 170.032L1046.07 169.771L1045.55 172.726ZM997.817 161.262C997.001 161.118 996.223 161.663 996.079 162.479C995.935 163.295 996.48 164.073 997.296 164.217L997.817 161.262ZM1046.07 169.771L997.817 161.262L997.296 164.217L1045.55 172.726L1046.07 169.771Z" fill="#8488B3"/>
        <path d="M997.568 161.862C996.89 161.387 995.954 161.552 995.479 162.231C995.004 162.909 995.169 163.844 995.847 164.32L997.568 161.862ZM1031.89 189.557L1033.12 190.417L1034.84 187.96L1033.61 187.1L1031.89 189.557ZM995.847 164.32L1031.89 189.557L1033.61 187.1L997.568 161.862L995.847 164.32Z" fill="#8488B3"/>
        <line x1="995.886" y1="162.505" x2="858.017" y2="64.761" stroke="#8488B2" stroke-width="3" stroke-linecap="round"/>
        <line x1="857.632" y1="64.8075" x2="954.568" y2="-73.6316" stroke="#8488B2" stroke-width="3" stroke-linecap="round"/>
        <line x1="1141.79" y1="257.669" x2="1037.86" y2="285.516" stroke="#8488B2" stroke-width="3" stroke-linecap="round"/>
        <line x1="1142.43" y1="258.911" x2="1217.14" y2="537.748" stroke="#8488B2" stroke-width="3" stroke-linecap="round"/>
        <path d="M1013.23 292.985C1014.04 293.13 1014.82 292.586 1014.97 291.771C1015.11 290.955 1014.57 290.176 1013.75 290.031L1013.23 292.985ZM965.508 281.452L964.031 281.189L963.506 284.143L964.983 284.406L965.508 281.452ZM1013.75 290.031L965.508 281.452L964.983 284.406L1013.23 292.985L1013.75 290.031Z" fill="#8488B2"/>
        <path d="M975.379 323.311L974.23 324.275L976.158 326.573L977.307 325.609L975.379 323.311ZM1014.84 294.112C1015.48 293.58 1015.56 292.634 1015.03 291.999C1014.5 291.364 1013.55 291.282 1012.92 291.814L1014.84 294.112ZM977.307 325.609L1014.84 294.112L1012.92 291.814L975.379 323.311L977.307 325.609Z" fill="#8488B2"/>
        <path d="M1014.54 293.536C1015.34 293.322 1015.82 292.499 1015.6 291.699C1015.39 290.899 1014.57 290.424 1013.77 290.639L1014.54 293.536ZM971.267 302.027L969.818 302.415L970.594 305.313L972.043 304.924L971.267 302.027ZM1013.77 290.639L971.267 302.027L972.043 304.924L1014.54 293.536L1013.77 290.639Z" fill="#8488B2"/>
        <circle cx="1026.1" cy="288.369" r="10.5" transform="rotate(75 1026.1 288.369)" stroke="#8488B2" stroke-width="3"/>
        <g clip-path="url(#clip1_2327_5502)">
            <path d="M1333.79 363.073C1292.91 361.238 1258.12 353.05 1249.5 343.229L1247.33 340.756V319.564V298.372L1253.01 301.192C1264.95 307.123 1284.97 312.074 1308.51 314.918C1324.19 316.811 1369.7 316.832 1385.09 314.953C1401.63 312.933 1415.19 310.288 1427.44 306.685L1429.13 306.19L1428.91 324.839L1428.69 343.488L1426.59 346.241C1419.93 354.964 1404.87 359.748 1377.03 361.992C1366.65 362.828 1342.05 363.444 1333.79 363.073ZM1352.85 340.074V334.214H1346.98H1341.12V340.074V345.934H1346.98H1352.85V340.074ZM1333.79 304.472C1292.97 302.651 1258.12 294.449 1249.5 284.629L1247.33 282.156V260.964V239.772L1253.01 242.592C1264.95 248.522 1284.97 253.473 1308.51 256.318C1324.19 258.211 1369.7 258.232 1385.09 256.353C1401.61 254.335 1415.27 251.671 1427.41 248.094L1429.06 247.608V270.42V293.231L1427.04 294.023C1418.41 297.417 1394.38 301.948 1377.39 303.387C1367.58 304.218 1342.24 304.849 1333.79 304.472ZM1352.85 287.334V281.474H1346.98H1341.12V287.334V293.194H1346.98H1352.85V287.334ZM1333.79 245.872C1292.97 244.05 1258.12 235.849 1249.5 226.029L1247.33 223.556V202.364V181.171L1253.01 183.992C1274.42 194.624 1310.33 200.026 1354.31 199.227C1384.93 198.672 1405.6 195.918 1427.41 189.494L1429.06 189.008V211.819V234.63L1427.04 235.423C1418.41 238.817 1394.38 243.348 1377.39 244.787C1367.58 245.618 1342.24 246.248 1333.79 245.872ZM1352.85 222.874V217.014H1346.98H1341.12V222.874V228.734H1346.98H1352.85V222.874Z" fill="#EE915D" style="mix-blend-mode:color-burn"/>
            <path d="M1120.5 279.333L1118.36 277.192V252.174V227.156L1120.5 225.015L1122.64 222.874H1179.12H1235.6V252.174V281.474H1179.12H1122.64L1120.5 279.333ZM1163.46 267.956C1165.24 266.173 1165.26 266.045 1165.26 252.174C1165.26 233.346 1166.5 234.594 1147.67 234.594C1128.83 234.594 1130.08 233.346 1130.08 252.174C1130.08 271.003 1128.83 269.754 1147.67 269.754C1161.54 269.754 1161.67 269.74 1163.46 267.956ZM1210.35 267.956C1212.14 266.173 1212.15 266.045 1212.15 252.174C1212.15 233.346 1213.4 234.594 1194.57 234.594C1175.73 234.594 1176.98 233.346 1176.98 252.174C1176.98 271.003 1175.73 269.754 1194.57 269.754C1208.44 269.754 1208.57 269.74 1210.35 267.956ZM1120.5 185.573L1118.36 183.432V158.414V133.396L1120.5 131.255L1122.64 129.114L1222.54 129.198L1322.44 129.283L1310.71 130.64C1294.4 132.528 1285.86 134.002 1274.81 136.835C1258.54 141.003 1248.68 145.484 1241.92 151.77C1236.08 157.196 1235.64 158.799 1235.62 174.346L1235.6 187.714H1179.12H1122.64L1120.5 185.573ZM1163.46 174.196C1165.24 172.413 1165.26 172.285 1165.26 158.414C1165.26 139.586 1166.5 140.834 1147.67 140.834C1128.83 140.834 1130.08 139.586 1130.08 158.414C1130.08 177.242 1128.83 175.994 1147.67 175.994C1161.54 175.994 1161.67 175.979 1163.46 174.196ZM1210.35 174.196C1212.14 172.413 1212.15 172.285 1212.15 158.414C1212.15 139.586 1213.4 140.834 1194.57 140.834C1175.73 140.834 1176.98 139.586 1176.98 158.414C1176.98 177.242 1175.73 175.994 1194.57 175.994C1208.44 175.994 1208.57 175.979 1210.35 174.196ZM1120.5 91.8127L1118.36 89.6716V64.6538V39.6361L1120.5 37.4949L1122.64 35.3538H1222.37H1322.11L1322.82 37.2327C1323.21 38.2661 1323.54 40.9031 1323.54 43.0927V47.0738H1320.6H1317.67V52.9338V58.7938H1320.6H1323.54V64.6538V70.5138H1320.6H1317.67V76.3738V82.2339H1320.6H1323.54V86.2149C1323.54 88.4045 1323.21 91.0415 1322.82 92.0749L1322.11 93.9539H1222.37H1122.64L1120.5 91.8127ZM1163.46 80.4359C1165.24 78.6525 1165.26 78.5245 1165.26 64.6538C1165.26 50.7832 1165.24 50.6551 1163.46 48.8717C1161.67 47.0884 1161.54 47.0738 1147.67 47.0738C1128.83 47.0738 1130.08 45.8254 1130.08 64.6538C1130.08 78.5245 1130.1 78.6525 1131.88 80.4359C1133.67 82.2193 1133.79 82.2339 1147.67 82.2339C1161.54 82.2339 1161.67 82.2192 1163.46 80.4359ZM1210.35 80.4359C1212.14 78.6525 1212.15 78.5245 1212.15 64.6538C1212.15 45.8254 1213.4 47.0738 1194.57 47.0738C1175.73 47.0738 1176.98 45.8254 1176.98 64.6538C1176.98 78.5245 1176.99 78.6525 1178.78 80.4359C1180.56 82.2193 1180.69 82.2339 1194.57 82.2339C1208.44 82.2339 1208.57 82.2192 1210.35 80.4359ZM1305.95 76.3738V70.5138H1264.91H1223.88V76.3738V82.2339H1264.91H1305.95V76.3738ZM1305.95 52.9338V47.0738H1264.91H1223.88V52.9338V58.7938H1264.91H1305.95V52.9338Z" fill="#5FA9EE"/>
            <path d="M1327.75 374.705C1329.06 374.542 1331.2 374.542 1332.51 374.705C1333.82 374.867 1332.75 375 1330.13 375C1327.51 375 1326.44 374.867 1327.75 374.705ZM1361.46 374.705C1362.77 374.542 1364.91 374.542 1366.22 374.705C1367.53 374.867 1366.46 375 1363.84 375C1361.22 375 1360.15 374.867 1361.46 374.705ZM1316.77 373.984C1317.68 373.809 1319 373.815 1319.7 373.998C1320.4 374.181 1319.65 374.324 1318.04 374.316C1316.43 374.308 1315.85 374.159 1316.77 373.984ZM1374.66 373.984C1375.57 373.809 1376.89 373.815 1377.59 373.998C1378.29 374.181 1377.54 374.324 1375.93 374.316C1374.32 374.308 1373.74 374.159 1374.66 373.984ZM1309.08 373.262C1309.79 373.076 1310.78 373.088 1311.28 373.29C1311.77 373.49 1311.19 373.642 1309.98 373.627C1308.77 373.613 1308.36 373.447 1309.08 373.262ZM1383.09 373.262C1383.8 373.076 1384.79 373.088 1385.29 373.29C1385.78 373.49 1385.2 373.642 1383.99 373.627C1382.78 373.613 1382.37 373.447 1383.09 373.262ZM1302.83 372.552C1303.34 372.349 1304.16 372.349 1304.67 372.552C1305.17 372.755 1304.76 372.921 1303.75 372.921C1302.74 372.921 1302.33 372.755 1302.83 372.552ZM1389.3 372.552C1389.81 372.349 1390.63 372.349 1391.13 372.552C1391.64 372.755 1391.23 372.921 1390.22 372.921C1389.21 372.921 1388.8 372.755 1389.3 372.552ZM1296.97 371.819C1297.48 371.616 1298.3 371.616 1298.8 371.819C1299.31 372.023 1298.9 372.189 1297.89 372.189C1296.88 372.189 1296.47 372.022 1296.97 371.819ZM1395.16 371.819C1395.67 371.616 1396.49 371.616 1397 371.819C1397.5 372.023 1397.09 372.189 1396.08 372.189C1395.07 372.189 1394.66 372.022 1395.16 371.819ZM1292.62 371.072C1293.15 370.86 1293.78 370.886 1294.03 371.129C1294.27 371.373 1293.84 371.546 1293.06 371.514C1292.21 371.479 1292.04 371.305 1292.62 371.072ZM1400.34 371.072C1400.87 370.86 1401.5 370.886 1401.74 371.129C1401.99 371.373 1401.55 371.546 1400.78 371.514C1399.93 371.479 1399.76 371.305 1400.34 371.072ZM1288.22 370.339C1288.75 370.128 1289.39 370.154 1289.63 370.397C1289.87 370.64 1289.44 370.813 1288.67 370.782C1287.81 370.746 1287.64 370.573 1288.22 370.339ZM1404.74 370.339C1405.27 370.128 1405.9 370.154 1406.14 370.397C1406.38 370.64 1405.95 370.813 1405.18 370.782C1404.33 370.746 1404.15 370.573 1404.74 370.339ZM1284.56 369.607C1285.09 369.395 1285.72 369.421 1285.97 369.664C1286.21 369.908 1285.78 370.081 1285 370.049C1284.15 370.014 1283.98 369.84 1284.56 369.607ZM1412.06 368.874C1412.59 368.663 1413.23 368.689 1413.47 368.932C1413.71 369.175 1413.28 369.348 1412.51 369.317C1411.65 369.281 1411.48 369.108 1412.06 368.874ZM1111.33 287.884L1109.93 286.235L1111.58 287.631C1113.13 288.942 1113.56 289.532 1112.98 289.532C1112.84 289.532 1112.09 288.79 1111.33 287.884ZM1111.4 216.282C1112.13 215.476 1112.89 214.817 1113.09 214.817C1113.29 214.817 1112.86 215.476 1112.13 216.282C1111.4 217.087 1110.64 217.747 1110.44 217.747C1110.24 217.747 1110.67 217.087 1111.4 216.282ZM1141.81 205.294V199.434H1153.53H1165.26V205.294V211.154H1153.53H1141.81L1141.81 205.294ZM1111.33 194.123L1109.93 192.475L1111.58 193.871C1113.13 195.182 1113.56 195.772 1112.98 195.772C1112.84 195.772 1112.09 195.03 1111.33 194.123ZM1408.4 134.474C1408.93 134.262 1409.56 134.288 1409.8 134.531C1410.05 134.775 1409.62 134.948 1408.84 134.916C1407.99 134.881 1407.82 134.707 1408.4 134.474ZM1400.34 133.009C1400.87 132.797 1401.5 132.823 1401.74 133.066C1401.99 133.31 1401.55 133.483 1400.78 133.451C1399.93 133.416 1399.76 133.242 1400.34 133.009ZM1395.21 132.276C1395.74 132.064 1396.37 132.091 1396.61 132.334C1396.86 132.577 1396.43 132.75 1395.65 132.719C1394.8 132.683 1394.63 132.51 1395.21 132.276ZM1389.3 131.559C1389.81 131.356 1390.63 131.356 1391.13 131.559C1391.64 131.762 1391.23 131.928 1390.22 131.928C1389.21 131.928 1388.8 131.762 1389.3 131.559ZM1382.71 130.826C1383.21 130.623 1384.04 130.623 1384.54 130.826C1385.04 131.03 1384.63 131.196 1383.62 131.196C1382.62 131.196 1382.2 131.03 1382.71 130.826ZM1374.28 130.074C1374.99 129.89 1376.14 129.89 1376.85 130.074C1377.55 130.258 1376.97 130.409 1375.56 130.409C1374.15 130.409 1373.58 130.258 1374.28 130.074ZM1359.99 129.317C1361.3 129.154 1363.44 129.154 1364.75 129.317C1366.06 129.479 1364.99 129.612 1362.37 129.612C1359.75 129.612 1358.68 129.479 1359.99 129.317ZM1111.4 122.521C1112.13 121.716 1112.89 121.056 1113.09 121.056C1113.29 121.056 1112.86 121.716 1112.13 122.521C1111.4 123.327 1110.64 123.986 1110.44 123.986C1110.24 123.986 1110.67 123.327 1111.4 122.521ZM1347.28 122.338L1345.89 120.69L1347.53 122.086C1348.44 122.853 1349.18 123.595 1349.18 123.734C1349.18 124.32 1348.59 123.887 1347.28 122.338ZM1141.81 111.534V105.674H1153.53H1165.26V111.534V117.394H1153.53H1141.81V111.534ZM1294.22 111.534V105.674H1305.95H1317.67V111.534V117.394H1305.95H1294.22V111.534ZM1111.33 100.363L1109.93 98.7151L1111.58 100.111C1113.13 101.422 1113.56 102.011 1112.98 102.011C1112.84 102.011 1112.09 101.27 1111.33 100.363ZM1347.35 100.546C1348.08 99.7407 1348.84 99.0814 1349.04 99.0814C1349.25 99.0814 1348.81 99.7407 1348.08 100.546C1347.35 101.352 1346.59 102.011 1346.39 102.011C1346.19 102.011 1346.62 101.352 1347.35 100.546ZM1111.4 28.7613C1112.13 27.9555 1112.89 27.2963 1113.09 27.2963C1113.29 27.2963 1112.86 27.9555 1112.13 28.7613C1111.4 29.567 1110.64 30.2263 1110.44 30.2263C1110.24 30.2263 1110.67 29.567 1111.4 28.7613ZM1347.28 28.5781L1345.89 26.93L1347.53 28.3254C1348.44 29.0929 1349.18 29.8345 1349.18 29.9735C1349.18 30.5597 1348.59 30.127 1347.28 28.5781Z" fill="#9C9C9C" style="mix-blend-mode:color-burn"/>
            <path d="M1415.63 354.348C1418.52 352.871 1422.19 350.549 1423.78 349.188C1428.87 344.827 1429.06 343.953 1429.06 323.745V305.806L1431.07 305.309C1432.18 305.036 1436.14 303.373 1439.86 301.614L1446.64 298.415V319.585V340.756L1444.45 343.251C1443.25 344.623 1440.03 346.907 1437.31 348.326C1432.19 350.994 1418.45 355.7 1413.3 356.551C1410.61 356.995 1410.8 356.815 1415.63 354.348ZM1429.06 270.249V247.205L1431.07 246.709C1432.18 246.436 1436.14 244.773 1439.86 243.014L1446.64 239.815V260.985V282.156L1444.45 284.651C1442.42 286.961 1434.53 291.634 1430.7 292.794L1429.06 293.293V270.249ZM1429.06 211.649V188.605L1431.07 188.109C1432.18 187.836 1436.14 186.173 1439.86 184.414L1446.64 181.214V202.385V223.556L1444.45 226.05C1442.42 228.361 1434.53 233.034 1430.7 234.193L1429.06 234.693V211.649ZM1325 186.905C1291.47 184.89 1261.28 177.578 1251.08 169.001C1245.39 164.21 1246.66 161.329 1256.85 155.95C1285.3 140.934 1356.32 136.407 1406.7 146.399C1417.88 148.619 1431.72 153.01 1437.91 156.306C1442 158.49 1446.64 162.72 1446.64 164.274C1446.64 165.828 1442 170.058 1437.91 172.242C1416.83 183.469 1369.7 189.59 1325 186.905Z" fill="#E66A11" style="mix-blend-mode:color-burn"/>
            <path d="M1119.73 279.46C1118.82 278.298 1118.84 278.272 1120.01 279.183C1120.71 279.736 1121.29 280.313 1121.29 280.465C1121.29 281.068 1120.69 280.68 1119.73 279.46ZM1188.7 252.174V246.314H1194.57H1200.43V252.174V258.034H1194.57H1188.7V252.174ZM1119.09 225.528C1119.09 225.375 1119.67 224.799 1120.37 224.246C1121.54 223.335 1121.56 223.36 1120.65 224.522C1119.69 225.742 1119.09 226.13 1119.09 225.528ZM1119.73 185.7C1118.82 184.538 1118.84 184.512 1120.01 185.423C1120.71 185.976 1121.29 186.553 1121.29 186.705C1121.29 187.308 1120.69 186.92 1119.73 185.7ZM1188.7 158.414V152.554H1194.57H1200.43V158.414V164.274H1194.57H1188.7V158.414ZM1119.09 131.767C1119.09 131.615 1119.67 131.038 1120.37 130.486C1121.54 129.574 1121.56 129.6 1120.65 130.762C1119.69 131.982 1119.09 132.37 1119.09 131.767ZM1308.74 130.811C1309.27 130.599 1309.9 130.626 1310.15 130.869C1310.39 131.112 1309.96 131.285 1309.19 131.254C1308.33 131.218 1308.16 131.045 1308.74 130.811ZM1316.02 130.094C1316.53 129.891 1317.35 129.891 1317.86 130.094C1318.36 130.297 1317.95 130.463 1316.94 130.463C1315.93 130.463 1315.52 130.297 1316.02 130.094ZM1324.07 129.318C1325.37 129.156 1327.68 129.153 1329.2 129.312C1330.72 129.471 1329.65 129.603 1326.83 129.606C1324.01 129.609 1322.77 129.48 1324.07 129.318ZM1322.82 92.0749C1323.21 91.0415 1323.54 88.4045 1323.54 86.2149V82.2339H1326.47H1329.4V76.3738V70.5138H1326.47H1323.54V64.6538V58.7938H1326.47H1329.4V52.9338V47.0738H1326.47H1323.54V43.0927C1323.54 40.9031 1323.21 38.2661 1322.82 37.2327L1322.11 35.3538H1329.82C1337.02 35.3538 1337.64 35.4706 1339.32 37.1517L1341.12 38.9497V64.6538V90.358L1339.32 92.1559C1337.64 93.837 1337.02 93.9539 1329.82 93.9539H1322.11L1322.82 92.0749ZM1119.73 91.9395C1118.82 90.7777 1118.84 90.7518 1120.01 91.6629C1120.71 92.2159 1121.29 92.7927 1121.29 92.9448C1121.29 93.5477 1120.69 93.1596 1119.73 91.9395ZM1188.7 64.6538V58.7938H1194.57H1200.43V64.6538V70.5138H1194.57H1188.7V64.6538ZM1119.09 38.0072C1119.09 37.8551 1119.67 37.2783 1120.37 36.7253C1121.54 35.8142 1121.56 35.8401 1120.65 37.0019C1119.69 38.2221 1119.09 38.6101 1119.09 38.0072Z" fill="#308CEB"/>
            <path d="M1331.4 362.986C1332.7 362.824 1335.01 362.821 1336.53 362.98C1338.05 363.139 1336.98 363.271 1334.16 363.274C1331.34 363.277 1330.1 363.148 1331.4 362.986ZM1357.04 362.986C1358.34 362.824 1360.65 362.821 1362.17 362.98C1363.69 363.139 1362.63 363.271 1359.81 363.274C1356.99 363.277 1355.74 363.148 1357.04 362.986ZM1318.59 362.277C1319.29 362.093 1320.45 362.093 1321.15 362.277C1321.86 362.461 1321.28 362.612 1319.87 362.612C1318.46 362.612 1317.88 362.461 1318.59 362.277ZM1372.81 362.277C1373.52 362.093 1374.67 362.093 1375.38 362.277C1376.08 362.461 1375.51 362.612 1374.1 362.612C1372.69 362.612 1372.11 362.461 1372.81 362.277ZM1310.9 361.564C1311.4 361.361 1312.22 361.361 1312.73 361.564C1313.23 361.767 1312.82 361.934 1311.81 361.934C1310.8 361.934 1310.39 361.768 1310.9 361.564ZM1381.97 361.564C1382.48 361.361 1383.3 361.361 1383.81 361.564C1384.31 361.767 1383.9 361.934 1382.89 361.934C1381.88 361.934 1381.47 361.768 1381.97 361.564ZM1304.35 360.817C1304.87 360.605 1305.51 360.631 1305.75 360.874C1305.99 361.118 1305.56 361.291 1304.79 361.259C1303.93 361.224 1303.76 361.05 1304.35 360.817ZM1388.62 360.817C1389.14 360.605 1389.78 360.631 1390.02 360.874C1390.26 361.118 1389.83 361.291 1389.06 361.259C1388.2 361.224 1388.03 361.05 1388.62 360.817ZM1299.22 360.084C1299.75 359.872 1300.38 359.899 1300.62 360.142C1300.86 360.385 1300.43 360.558 1299.66 360.527C1298.81 360.491 1298.63 360.318 1299.22 360.084ZM1393.74 360.084C1394.27 359.872 1394.91 359.899 1395.15 360.142C1395.39 360.385 1394.96 360.558 1394.19 360.527C1393.33 360.491 1393.16 360.318 1393.74 360.084ZM1294.09 359.352C1294.62 359.14 1295.25 359.166 1295.49 359.409C1295.73 359.653 1295.3 359.826 1294.53 359.794C1293.68 359.759 1293.5 359.585 1294.09 359.352ZM1398.87 359.352C1399.4 359.14 1400.04 359.166 1400.28 359.409C1400.52 359.653 1400.09 359.826 1399.32 359.794C1398.46 359.759 1398.29 359.585 1398.87 359.352ZM1249.09 343.554L1247.69 341.906L1249.34 343.301C1250.89 344.612 1251.32 345.202 1250.74 345.202C1250.6 345.202 1249.86 344.46 1249.09 343.554ZM1444.08 343.737C1444.81 342.931 1445.57 342.272 1445.77 342.272C1445.97 342.272 1445.54 342.931 1444.81 343.737C1444.08 344.542 1443.32 345.202 1443.12 345.202C1442.92 345.202 1443.35 344.542 1444.08 343.737ZM1327.39 316.109C1328.51 315.94 1330.16 315.945 1331.06 316.12C1331.96 316.293 1331.05 316.431 1329.03 316.426C1327.02 316.42 1326.28 316.277 1327.39 316.109ZM1363.3 316.109C1364.41 315.94 1366.06 315.945 1366.96 316.12C1367.86 316.293 1366.95 316.431 1364.94 316.426C1362.92 316.42 1362.18 316.277 1363.3 316.109ZM1316.39 315.397C1317.1 315.213 1318.25 315.213 1318.96 315.397C1319.66 315.581 1319.08 315.732 1317.67 315.732C1316.26 315.732 1315.69 315.581 1316.39 315.397ZM1375.01 315.397C1375.72 315.213 1376.87 315.213 1377.58 315.397C1378.28 315.581 1377.71 315.732 1376.3 315.732C1374.88 315.732 1374.31 315.581 1375.01 315.397ZM1308.7 314.684C1309.2 314.481 1310.02 314.481 1310.53 314.684C1311.03 314.887 1310.62 315.054 1309.61 315.054C1308.61 315.054 1308.19 314.887 1308.7 314.684ZM1383.44 314.684C1383.94 314.481 1384.77 314.481 1385.27 314.684C1385.78 314.887 1385.36 315.054 1384.36 315.054C1383.35 315.054 1382.94 314.887 1383.44 314.684ZM1302.88 313.936C1303.41 313.725 1304.04 313.751 1304.28 313.994C1304.53 314.238 1304.1 314.411 1303.32 314.379C1302.47 314.344 1302.3 314.17 1302.88 313.936ZM1390.08 313.936C1390.61 313.725 1391.24 313.751 1391.49 313.994C1391.73 314.238 1391.3 314.411 1390.52 314.379C1389.67 314.344 1389.5 314.17 1390.08 313.936ZM1297.02 313.204C1297.55 312.992 1298.18 313.018 1298.42 313.262C1298.67 313.505 1298.23 313.678 1297.46 313.646C1296.61 313.611 1296.43 313.438 1297.02 313.204ZM1395.94 313.204C1396.47 312.992 1397.1 313.018 1397.35 313.262C1397.59 313.505 1397.16 313.678 1396.39 313.646C1395.53 313.611 1395.36 313.438 1395.94 313.204ZM1292.62 312.471C1293.15 312.26 1293.78 312.286 1294.03 312.529C1294.27 312.773 1293.84 312.946 1293.06 312.914C1292.21 312.879 1292.04 312.705 1292.62 312.471ZM1331.4 304.385C1332.7 304.224 1335.01 304.221 1336.53 304.38C1338.05 304.539 1336.98 304.671 1334.16 304.674C1331.34 304.677 1330.1 304.547 1331.4 304.385ZM1357.04 304.385C1358.34 304.224 1360.65 304.221 1362.17 304.38C1363.69 304.539 1362.63 304.671 1359.81 304.674C1356.99 304.677 1355.74 304.547 1357.04 304.385ZM1319.34 303.674C1320.05 303.488 1321.04 303.5 1321.53 303.702C1322.03 303.902 1321.45 304.054 1320.24 304.039C1319.03 304.026 1318.62 303.86 1319.34 303.674ZM1373.56 303.674C1374.27 303.488 1375.26 303.5 1375.76 303.702C1376.26 303.902 1375.67 304.054 1374.46 304.039C1373.25 304.026 1372.85 303.86 1373.56 303.674ZM1310.9 302.964C1311.4 302.761 1312.22 302.761 1312.73 302.964C1313.23 303.167 1312.82 303.333 1311.81 303.333C1310.8 303.333 1310.39 303.167 1310.9 302.964ZM1381.97 302.964C1382.48 302.761 1383.3 302.761 1383.81 302.964C1384.31 303.167 1383.9 303.333 1382.89 303.333C1381.88 303.333 1381.47 303.167 1381.97 302.964ZM1304.35 302.216C1304.87 302.005 1305.51 302.031 1305.75 302.274C1305.99 302.517 1305.56 302.691 1304.79 302.659C1303.93 302.624 1303.76 302.45 1304.35 302.216ZM1388.62 302.216C1389.14 302.005 1389.78 302.031 1390.02 302.274C1390.26 302.517 1389.83 302.691 1389.06 302.659C1388.2 302.624 1388.03 302.45 1388.62 302.216ZM1299.22 301.484C1299.75 301.272 1300.38 301.298 1300.62 301.542C1300.86 301.785 1300.43 301.958 1299.66 301.926C1298.81 301.891 1298.63 301.718 1299.22 301.484ZM1393.74 301.484C1394.27 301.272 1394.91 301.298 1395.15 301.542C1395.39 301.785 1394.96 301.958 1394.19 301.926C1393.33 301.891 1393.16 301.718 1393.74 301.484ZM1294.09 300.751C1294.62 300.54 1295.25 300.566 1295.49 300.809C1295.73 301.052 1295.3 301.226 1294.53 301.194C1293.68 301.159 1293.5 300.985 1294.09 300.751ZM1398.87 300.751C1399.4 300.54 1400.04 300.566 1400.28 300.809C1400.52 301.052 1400.09 301.226 1399.32 301.194C1398.46 301.159 1398.29 300.985 1398.87 300.751ZM1249.09 284.953L1247.69 283.305L1249.34 284.701C1250.89 286.012 1251.32 286.602 1250.74 286.602C1250.6 286.602 1249.86 285.86 1249.09 284.953ZM1444.08 285.137C1444.81 284.331 1445.57 283.672 1445.77 283.672C1445.97 283.672 1445.54 284.331 1444.81 285.137C1444.08 285.942 1443.32 286.602 1443.12 286.602C1442.92 286.602 1443.35 285.942 1444.08 285.137ZM1141.81 252.174V246.314H1147.67H1153.53V252.174V258.034H1147.67H1141.81V252.174ZM1327.39 257.509C1328.51 257.34 1330.16 257.345 1331.06 257.519C1331.96 257.692 1331.05 257.83 1329.03 257.825C1327.02 257.819 1326.28 257.677 1327.39 257.509ZM1363.3 257.509C1364.41 257.34 1366.06 257.345 1366.96 257.519C1367.86 257.692 1366.95 257.83 1364.94 257.825C1362.92 257.819 1362.18 257.677 1363.3 257.509ZM1316.39 256.797C1317.1 256.613 1318.25 256.613 1318.96 256.797C1319.66 256.981 1319.08 257.132 1317.67 257.132C1316.26 257.132 1315.69 256.981 1316.39 256.797ZM1375.01 256.797C1375.72 256.613 1376.87 256.613 1377.58 256.797C1378.28 256.981 1377.71 257.132 1376.3 257.132C1374.88 257.132 1374.31 256.981 1375.01 256.797ZM1308.7 256.084C1309.2 255.881 1310.02 255.881 1310.53 256.084C1311.03 256.287 1310.62 256.454 1309.61 256.454C1308.61 256.454 1308.19 256.287 1308.7 256.084ZM1383.44 256.084C1383.94 255.881 1384.77 255.881 1385.27 256.084C1385.78 256.287 1385.36 256.454 1384.36 256.454C1383.35 256.454 1382.94 256.287 1383.44 256.084ZM1302.88 255.336C1303.41 255.125 1304.04 255.151 1304.28 255.394C1304.53 255.638 1304.1 255.811 1303.32 255.779C1302.47 255.744 1302.3 255.57 1302.88 255.336ZM1390.08 255.336C1390.61 255.125 1391.24 255.151 1391.49 255.394C1391.73 255.638 1391.3 255.811 1390.52 255.779C1389.67 255.744 1389.5 255.57 1390.08 255.336ZM1297.02 254.604C1297.55 254.392 1298.18 254.418 1298.42 254.662C1298.67 254.905 1298.23 255.078 1297.46 255.046C1296.61 255.011 1296.43 254.838 1297.02 254.604ZM1395.94 254.604C1396.47 254.392 1397.1 254.418 1397.35 254.662C1397.59 254.905 1397.16 255.078 1396.39 255.046C1395.53 255.011 1395.36 254.838 1395.94 254.604ZM1292.62 253.871C1293.15 253.66 1293.78 253.686 1294.03 253.929C1294.27 254.173 1293.84 254.346 1293.06 254.314C1292.21 254.279 1292.04 254.105 1292.62 253.871ZM1331.4 245.786C1332.7 245.624 1335.01 245.621 1336.53 245.78C1338.05 245.938 1336.98 246.071 1334.16 246.074C1331.34 246.077 1330.1 245.947 1331.4 245.786ZM1357.04 245.786C1358.34 245.624 1360.65 245.621 1362.17 245.78C1363.69 245.938 1362.63 246.071 1359.81 246.074C1356.99 246.077 1355.74 245.947 1357.04 245.786ZM1319.34 245.074C1320.05 244.888 1321.04 244.901 1321.53 245.101C1322.03 245.302 1321.45 245.454 1320.24 245.439C1319.03 245.424 1318.62 245.26 1319.34 245.074ZM1373.56 245.074C1374.27 244.888 1375.26 244.901 1375.76 245.101C1376.26 245.302 1375.67 245.454 1374.46 245.439C1373.25 245.424 1372.85 245.26 1373.56 245.074ZM1310.9 244.364C1311.4 244.161 1312.22 244.161 1312.73 244.364C1313.23 244.567 1312.82 244.734 1311.81 244.734C1310.8 244.734 1310.39 244.567 1310.9 244.364ZM1381.97 244.364C1382.48 244.161 1383.3 244.161 1383.81 244.364C1384.31 244.567 1383.9 244.734 1382.89 244.734C1381.88 244.734 1381.47 244.567 1381.97 244.364ZM1304.35 243.616C1304.87 243.405 1305.51 243.431 1305.75 243.674C1305.99 243.918 1305.56 244.091 1304.79 244.059C1303.93 244.024 1303.76 243.85 1304.35 243.616ZM1388.62 243.616C1389.14 243.405 1389.78 243.431 1390.02 243.674C1390.26 243.918 1389.83 244.091 1389.06 244.059C1388.2 244.024 1388.03 243.85 1388.62 243.616ZM1299.22 242.884C1299.75 242.672 1300.38 242.698 1300.62 242.942C1300.86 243.185 1300.43 243.358 1299.66 243.326C1298.81 243.291 1298.63 243.118 1299.22 242.884ZM1393.74 242.884C1394.27 242.672 1394.91 242.698 1395.15 242.942C1395.39 243.185 1394.96 243.358 1394.19 243.326C1393.33 243.291 1393.16 243.118 1393.74 242.884ZM1294.09 242.151C1294.62 241.94 1295.25 241.966 1295.49 242.209C1295.73 242.452 1295.3 242.626 1294.53 242.594C1293.68 242.559 1293.5 242.385 1294.09 242.151ZM1398.87 242.151C1399.4 241.94 1400.04 241.966 1400.28 242.209C1400.52 242.452 1400.09 242.626 1399.32 242.594C1398.46 242.559 1398.29 242.385 1398.87 242.151ZM1249.09 226.354L1247.69 224.705L1249.34 226.101C1250.89 227.412 1251.32 228.002 1250.74 228.002C1250.6 228.002 1249.86 227.26 1249.09 226.354ZM1444.08 226.537C1444.81 225.731 1445.57 225.072 1445.77 225.072C1445.97 225.072 1445.54 225.731 1444.81 226.537C1444.08 227.342 1443.32 228.002 1443.12 228.002C1442.92 228.002 1443.35 227.342 1444.08 226.537ZM1327.39 198.908C1328.51 198.74 1330.16 198.745 1331.06 198.918C1331.96 199.092 1331.05 199.23 1329.03 199.225C1327.02 199.219 1326.28 199.077 1327.39 198.908ZM1363.3 198.908C1364.41 198.74 1366.06 198.745 1366.96 198.918C1367.86 199.092 1366.95 199.23 1364.94 199.225C1362.92 199.219 1362.18 199.077 1363.3 198.908ZM1316.39 198.197C1317.1 198.012 1318.25 198.012 1318.96 198.197C1319.66 198.381 1319.08 198.532 1317.67 198.532C1316.26 198.532 1315.69 198.381 1316.39 198.197ZM1375.01 198.197C1375.72 198.012 1376.87 198.012 1377.58 198.197C1378.28 198.381 1377.71 198.532 1376.3 198.532C1374.88 198.532 1374.31 198.381 1375.01 198.197ZM1308.7 197.484C1309.2 197.281 1310.02 197.281 1310.53 197.484C1311.03 197.687 1310.62 197.853 1309.61 197.853C1308.61 197.853 1308.19 197.687 1308.7 197.484ZM1383.44 197.484C1383.94 197.281 1384.77 197.281 1385.27 197.484C1385.78 197.687 1385.36 197.853 1384.36 197.853C1383.35 197.853 1382.94 197.687 1383.44 197.484ZM1302.88 196.736C1303.41 196.525 1304.04 196.551 1304.28 196.794C1304.53 197.037 1304.1 197.211 1303.32 197.179C1302.47 197.144 1302.3 196.97 1302.88 196.736ZM1390.08 196.736C1390.61 196.525 1391.24 196.551 1391.49 196.794C1391.73 197.037 1391.3 197.211 1390.52 197.179C1389.67 197.144 1389.5 196.97 1390.08 196.736ZM1297.02 196.004C1297.55 195.792 1298.18 195.818 1298.42 196.062C1298.67 196.305 1298.23 196.478 1297.46 196.446C1296.61 196.411 1296.43 196.238 1297.02 196.004ZM1395.94 196.004C1396.47 195.792 1397.1 195.818 1397.35 196.062C1397.59 196.305 1397.16 196.478 1396.39 196.446C1395.53 196.411 1395.36 196.238 1395.94 196.004ZM1292.62 195.271C1293.15 195.06 1293.78 195.086 1294.03 195.329C1294.27 195.572 1293.84 195.746 1293.06 195.714C1292.21 195.679 1292.04 195.505 1292.62 195.271ZM1400.34 195.271C1400.87 195.06 1401.5 195.086 1401.74 195.329C1401.99 195.572 1401.55 195.746 1400.78 195.714C1399.93 195.679 1399.76 195.505 1400.34 195.271ZM1331.05 187.209C1331.75 187.025 1332.91 187.025 1333.61 187.209C1334.32 187.393 1333.74 187.544 1332.33 187.544C1330.92 187.544 1330.34 187.393 1331.05 187.209ZM1360.36 187.209C1361.06 187.025 1362.22 187.025 1362.92 187.209C1363.63 187.393 1363.05 187.544 1361.64 187.544C1360.23 187.544 1359.65 187.393 1360.36 187.209ZM1319 186.481C1319.53 186.27 1320.16 186.296 1320.41 186.539C1320.65 186.782 1320.22 186.956 1319.44 186.924C1318.59 186.889 1318.42 186.715 1319 186.481ZM1373.96 186.481C1374.49 186.27 1375.12 186.296 1375.36 186.539C1375.61 186.782 1375.17 186.956 1374.4 186.924C1373.55 186.889 1373.38 186.715 1373.96 186.481ZM1249.09 167.753L1247.69 166.105L1249.34 167.501C1250.89 168.812 1251.32 169.402 1250.74 169.402C1250.6 169.402 1249.86 168.66 1249.09 167.753ZM1444.08 167.937C1444.81 167.131 1445.57 166.472 1445.77 166.472C1445.97 166.472 1445.54 167.131 1444.81 167.937C1444.08 168.742 1443.32 169.402 1443.12 169.402C1442.92 169.402 1443.35 168.742 1444.08 167.937ZM1141.81 158.414V152.554H1147.67H1153.53V158.414V164.274H1147.67H1141.81V158.414ZM1444.01 160.428L1442.61 158.78L1444.26 160.176C1445.81 161.487 1446.24 162.077 1445.66 162.077C1445.52 162.077 1444.78 161.335 1444.01 160.428ZM1319 141.799C1319.53 141.587 1320.16 141.613 1320.41 141.856C1320.65 142.1 1320.22 142.273 1319.44 142.241C1318.59 142.206 1318.42 142.032 1319 141.799ZM1373.96 141.799C1374.49 141.587 1375.12 141.613 1375.36 141.856C1375.61 142.1 1375.17 142.273 1374.4 142.241C1373.55 142.206 1373.38 142.032 1373.96 141.799ZM1331.05 141.062C1331.75 140.877 1332.91 140.877 1333.61 141.062C1334.32 141.246 1333.74 141.397 1332.33 141.397C1330.92 141.397 1330.34 141.246 1331.05 141.062ZM1360.36 141.062C1361.06 140.877 1362.22 140.877 1362.92 141.062C1363.63 141.246 1363.05 141.397 1361.64 141.397C1360.23 141.397 1359.65 141.246 1360.36 141.062ZM1141.81 64.6538V58.7938H1147.67H1153.53V64.6538V70.5138H1147.67H1141.81V64.6538Z" fill="#D37254" style="mix-blend-mode:color-burn"/>
            <path d="M1325 374.482C1279.17 371.473 1246.65 361.48 1238.19 347.812L1235.97 344.221L1235.75 318.725L1235.53 293.228L1177.49 293.028C1119.62 292.829 1119.45 292.824 1116.53 291.247C1113.1 289.397 1110.28 286.528 1108.37 282.939C1107.1 280.566 1107 278.285 1107 252.174C1107 226.063 1107.1 223.783 1108.37 221.409C1111.83 214.917 1116.85 211.826 1124.77 211.308L1130.08 210.961V205.294V199.627L1124.77 199.28C1116.85 198.763 1111.83 195.671 1108.37 189.179C1107.1 186.805 1107 184.525 1107 158.414C1107 130.916 1107.04 130.14 1108.58 127.283C1111.93 121.084 1116.97 118.052 1124.77 117.546L1130.08 117.201V111.534V105.867L1124.77 105.522C1116.97 105.016 1111.93 101.984 1108.58 95.7851C1107.04 92.9282 1107 92.1518 1107 64.6538C1107 37.1559 1107.04 36.3794 1108.58 33.5225C1110.43 30.0941 1113.3 27.2767 1116.89 25.3655C1119.36 24.0506 1123.54 24 1229.74 24C1335.94 24 1340.12 24.0506 1342.59 25.3655C1346.18 27.2767 1349.05 30.0941 1350.9 33.5225C1352.44 36.3794 1352.48 37.1559 1352.48 64.6538C1352.48 92.1518 1352.44 92.9282 1350.9 95.7851C1347.55 101.984 1342.51 105.016 1334.71 105.522L1329.4 105.867V111.534V117.201L1334.71 117.548C1338.08 117.768 1341.12 118.457 1343.02 119.432C1346.25 121.088 1350.22 125.151 1351 127.601C1351.26 128.433 1351.7 129.116 1351.98 129.118C1352.26 129.12 1358.75 129.463 1366.4 129.879C1413.78 132.458 1447.65 142.64 1455.98 156.812L1458 160.245V252.174V344.103L1455.98 347.537C1448.44 360.358 1420.27 369.885 1378.49 373.746C1366.63 374.843 1336.75 375.254 1325 374.482ZM1371.17 362.762C1405.07 360.407 1434.9 352.802 1444.04 344.182L1446.64 341.733V319.966C1446.64 307.995 1446.39 298.311 1446.09 298.448C1445.79 298.585 1443.89 299.564 1441.88 300.624C1419.95 312.16 1369.43 318.78 1325.37 315.891C1293.23 313.784 1268.19 308.602 1252.86 300.883C1250.07 299.475 1247.68 298.322 1247.55 298.322C1247.43 298.322 1247.33 307.972 1247.33 319.768C1247.33 337.914 1247.5 341.462 1248.46 342.828C1250.41 345.612 1259.07 350.152 1268.21 353.181C1282.56 357.938 1301.19 361.259 1321.76 362.73C1333.69 363.583 1359.11 363.6 1371.17 362.762ZM1341.12 340.074V334.214H1346.98H1352.85V340.074V345.934H1346.98H1341.12V340.074ZM1371.17 304.162C1405.07 301.807 1434.9 294.202 1444.04 285.582L1446.64 283.133V261.366C1446.64 249.395 1446.39 239.711 1446.09 239.848C1445.79 239.985 1443.89 240.964 1441.88 242.023C1419.95 253.56 1369.43 260.18 1325.37 257.291C1293.23 255.183 1268.19 250.002 1252.86 242.283C1250.07 240.874 1247.68 239.722 1247.55 239.722C1247.43 239.722 1247.33 249.489 1247.33 261.427V283.133L1249.94 285.595C1258.94 294.08 1288.13 301.61 1321.7 304.108C1333.48 304.984 1358.93 305.012 1371.17 304.162ZM1341.12 287.334V281.474H1346.98H1352.85V287.334V293.194H1346.98H1341.12V287.334ZM1235.6 252.174V222.874H1178.78H1121.96L1120.16 224.672L1118.36 226.47V252.174V277.878L1120.16 279.676L1121.96 281.474H1178.78H1235.6V252.174ZM1131.88 267.956C1130.1 266.173 1130.08 266.045 1130.08 252.174C1130.08 233.346 1128.83 234.594 1147.67 234.594C1166.5 234.594 1165.26 233.346 1165.26 252.174C1165.26 271.003 1166.5 269.754 1147.67 269.754C1133.79 269.754 1133.67 269.74 1131.88 267.956ZM1153.53 252.174V246.314H1147.67H1141.81V252.174V258.034H1147.67H1153.53V252.174ZM1178.78 267.956C1176.99 266.173 1176.98 266.045 1176.98 252.174C1176.98 233.346 1175.73 234.594 1194.57 234.594C1208.44 234.594 1208.57 234.609 1210.35 236.392C1212.14 238.176 1212.15 238.304 1212.15 252.174C1212.15 271.003 1213.4 269.754 1194.57 269.754C1180.69 269.754 1180.56 269.74 1178.78 267.956ZM1200.43 252.174V246.314H1194.57H1188.7V252.174V258.034H1194.57H1200.43V252.174ZM1371.29 245.542C1405.77 243.171 1435.66 235.393 1444.63 226.459L1446.64 224.452V202.726C1446.64 190.776 1446.39 181.111 1446.09 181.248C1445.79 181.384 1443.89 182.363 1441.88 183.423C1430.87 189.213 1408.74 194.723 1386.55 197.194C1336.39 202.784 1279.35 197.02 1252.86 183.683C1250.07 182.274 1247.68 181.122 1247.55 181.122C1247.43 181.122 1247.33 190.889 1247.33 202.827V224.532L1249.8 226.859C1258.89 235.438 1288.08 243.006 1321.7 245.508C1333.71 246.401 1358.55 246.418 1371.29 245.542ZM1341.12 222.874V217.014H1346.98H1352.85V222.874V228.734H1346.98H1341.12V222.874ZM1165.26 205.294V199.434H1153.53H1141.81V205.294V211.154H1153.53H1165.26V205.294ZM1235.6 205.294V199.434H1206.29H1176.98V205.294V211.154H1206.29H1235.6V205.294ZM1235.61 174.712C1235.62 162.616 1235.74 161.453 1237.34 158.02C1243.99 143.726 1276.83 132.973 1323.17 129.908C1328.18 129.576 1286.83 129.28 1226.96 129.22L1121.96 129.114L1120.16 130.912L1118.36 132.71V158.414V184.118L1120.16 185.916L1121.96 187.714H1178.78H1235.6L1235.61 174.712ZM1131.88 174.196C1130.1 172.413 1130.08 172.285 1130.08 158.414C1130.08 139.586 1128.83 140.834 1147.67 140.834C1166.5 140.834 1165.26 139.586 1165.26 158.414C1165.26 177.242 1166.5 175.994 1147.67 175.994C1133.79 175.994 1133.67 175.979 1131.88 174.196ZM1153.53 158.414V152.554H1147.67H1141.81V158.414V164.274H1147.67H1153.53V158.414ZM1178.78 174.196C1176.99 172.413 1176.98 172.285 1176.98 158.414C1176.98 139.586 1175.73 140.834 1194.57 140.834C1208.44 140.834 1208.57 140.849 1210.35 142.632C1212.14 144.415 1212.15 144.543 1212.15 158.414C1212.15 177.242 1213.4 175.994 1194.57 175.994C1180.69 175.994 1180.56 175.979 1178.78 174.196ZM1200.43 158.414V152.554H1194.57H1188.7V158.414V164.274H1194.57H1200.43V158.414ZM1370.43 186.963C1391.54 185.499 1410.34 182.376 1423.75 178.104C1437.22 173.817 1446.64 168.121 1446.64 164.274C1446.64 161.897 1442.57 158.382 1436.3 155.339C1396.64 136.106 1298.37 136.041 1257.8 155.221C1251.68 158.114 1247.33 161.878 1247.33 164.274C1247.33 169.824 1264.41 177.679 1286.16 182.129C1310.03 187.012 1342.7 188.886 1370.43 186.963ZM1165.26 111.534V105.674H1153.53H1141.81V111.534V117.394H1153.53H1165.26V111.534ZM1282.5 111.534V105.674H1229.74H1176.98V111.534V117.394H1229.74H1282.5V111.534ZM1317.67 111.534V105.674H1305.95H1294.22V111.534V117.394H1305.95H1317.67V111.534ZM1339.32 92.1559L1341.12 90.358V64.6538V38.9497L1339.32 37.1517L1337.52 35.3538H1229.74H1121.96L1120.16 37.1517L1118.36 38.9497V64.6538V90.358L1120.16 92.1559L1121.96 93.9539H1229.74H1337.52L1339.32 92.1559ZM1131.88 80.4359C1130.1 78.6525 1130.08 78.5245 1130.08 64.6538C1130.08 45.8254 1128.83 47.0738 1147.67 47.0738C1166.5 47.0738 1165.26 45.8254 1165.26 64.6538C1165.26 83.4823 1166.5 82.2339 1147.67 82.2339C1133.79 82.2339 1133.67 82.2192 1131.88 80.4359ZM1153.53 64.6538V58.7938H1147.67H1141.81V64.6538V70.5138H1147.67H1153.53V64.6538ZM1178.78 80.4359C1176.99 78.6525 1176.98 78.5245 1176.98 64.6538C1176.98 45.8254 1175.73 47.0738 1194.57 47.0738C1213.4 47.0738 1212.15 45.8254 1212.15 64.6538C1212.15 83.4823 1213.4 82.2339 1194.57 82.2339C1180.69 82.2339 1180.56 82.2192 1178.78 80.4359ZM1200.43 64.6538V58.7938H1194.57H1188.7V64.6538V70.5138H1194.57H1200.43V64.6538ZM1223.88 76.3739V70.5138H1264.91H1305.95V76.3739V82.2339H1264.91H1223.88V76.3739ZM1317.67 76.3739V70.5138H1323.54H1329.4V76.3739V82.2339H1323.54H1317.67V76.3739ZM1223.88 52.9338V47.0738H1264.91H1305.95V52.9338V58.7938H1264.91H1223.88V52.9338ZM1317.67 52.9338V47.0738H1323.54H1329.4V52.9338V58.7938H1323.54H1317.67V52.9338Z" fill="#3C4A43" style="mix-blend-mode:color-burn"/>
        </g>
    </g>
    <defs>
        <linearGradient id="paint0_linear_2327_5502" x1="1500" y1="200" x2="-38" y2="200" gradientUnits="userSpaceOnUse">
            <stop stop-color="#BA9C00"/>
            <stop offset="1" stop-color="#ECE65C"/>
        </linearGradient>
        <clipPath id="clip0_2327_5502">
            <rect width="1500" height="400" fill="white"/>
        </clipPath>
        <clipPath id="clip1_2327_5502">
            <rect width="351" height="351" fill="white" transform="translate(1107 24)"/>
        </clipPath>
    </defs>
</svg>
